# Blender v3.2.2 OBJ File: ''
# www.blender.org
mtllib arrow.mtl
o Cube
v 0.200958 0.542771 -0.175597
v 0.135737 -0.542771 -0.128747
v 0.200958 0.542771 0.175597
v 0.135737 -0.542771 0.128747
v -0.200958 0.542771 -0.175597
v -0.135737 -0.542771 -0.128747
v -0.200958 0.542771 0.175597
v -0.135737 -0.542771 0.128747
v 0.418601 0.595147 -0.409364
v 0.418601 0.595147 0.409364
v -0.418601 0.595147 -0.409364
v -0.418601 0.595147 0.409364
v 0.000000 1.177026 0.000000
vt 0.625000 0.000000
vt 0.625000 0.250000
vt 0.625000 0.250000
vt 0.625000 0.750000
vt 0.375000 1.000000
vt 0.375000 0.750000
vt 0.375000 0.250000
vt 0.375000 0.000000
vt 0.375000 0.500000
vt 0.125000 0.750000
vt 0.125000 0.500000
vt 0.625000 0.500000
vt 0.625000 0.750000
vt 0.625000 0.500000
vt 0.625000 0.750000
vt 0.625000 1.000000
vt 0.625000 1.000000
vt 0.625000 0.000000
vt 0.625000 0.250000
vt 0.625000 1.000000
vt 0.625000 0.500000
vn -0.2340 -0.9722 0.0000
vn 0.0000 -0.0431 0.9991
vn -0.9982 -0.0600 0.0000
vn 0.0000 -1.0000 0.0000
vn 0.9982 -0.0600 0.0000
vn 0.0000 -0.0431 -0.9991
vn 0.8118 0.5840 0.0000
vn 0.2340 -0.9722 0.0000
vn 0.0000 -0.9758 -0.2186
vn 0.0000 -0.9758 0.2186
vn -0.8118 0.5840 0.0000
vn 0.0000 0.5754 0.8179
vn 0.0000 0.5754 -0.8179
usemtl Material
s off
f 7/1/1 11/2/1 5/3/1
f 3/4/2 8/5/2 4/6/2
f 7/1/3 6/7/3 8/8/3
f 2/9/4 8/10/4 6/11/4
f 1/12/5 4/6/5 2/9/5
f 5/3/6 2/9/6 6/7/6
f 10/13/7 9/14/7 13/15/7
f 1/12/8 10/13/8 3/4/8
f 5/3/9 9/14/9 1/12/9
f 3/4/10 12/16/10 7/17/10
f 11/2/11 12/18/11 13/19/11
f 12/16/12 10/13/12 13/20/12
f 9/14/13 11/2/13 13/21/13
f 7/1/1 12/18/1 11/2/1
f 3/4/2 7/17/2 8/5/2
f 7/1/3 5/3/3 6/7/3
f 2/9/4 4/6/4 8/10/4
f 1/12/5 3/4/5 4/6/5
f 5/3/6 1/12/6 2/9/6
f 1/12/8 9/14/8 10/13/8
f 5/3/9 11/2/9 9/14/9
f 3/4/10 10/13/10 12/16/10
