# Blender v3.2.2 OBJ File: ''
# www.blender.org
o Plane
v -1.000000 0.000000 -10.277184
v 1.000000 0.000000 -10.277184
v -1.000000 0.000000 -12.277184
v 1.000000 0.000000 -12.277184
v -0.939693 0.342020 -8.278182
v 0.939693 -0.342020 -8.278182
v -0.766044 0.642788 -6.309994
v 0.766044 -0.642788 -6.309994
v -0.500000 0.866025 -4.310366
v 0.500000 -0.866025 -4.310366
v -0.173648 0.984808 -2.517032
v 0.173648 -0.984808 -2.517032
v -0.000000 1.000000 -1.176402
v 0.000000 -1.000000 -1.176402
v -0.000000 1.000000 1.157410
v 0.000000 -1.000000 1.157410
v 0.173648 0.984808 3.043726
v -0.173648 -0.984808 3.043726
v 0.500000 0.866025 4.965934
v -0.500000 -0.866025 4.965934
v 0.766044 0.642788 6.657310
v -0.766044 -0.642788 6.657310
v 0.939692 0.342020 8.181481
v -0.939692 -0.342020 8.181481
v 1.000000 0.000000 9.748548
v -1.000000 -0.000000 9.748548
v 1.000000 0.000000 11.144751
v -1.000000 -0.000000 11.144751
vt 1.000000 0.000000
vt 0.000000 1.000000
vt 0.000000 0.000000
vt 1.000000 0.000000
vt 0.000000 0.000000
vt 1.000000 0.000000
vt 0.000000 0.000000
vt 1.000000 0.000000
vt 0.000000 0.000000
vt 1.000000 0.000000
vt 0.000000 0.000000
vt 1.000000 0.000000
vt 0.000000 0.000000
vt 1.000000 0.000000
vt 0.000000 0.000000
vt 1.000000 0.000000
vt 0.000000 0.000000
vt 1.000000 0.000000
vt 0.000000 0.000000
vt 1.000000 0.000000
vt 0.000000 0.000000
vt 1.000000 0.000000
vt 0.000000 0.000000
vt 1.000000 0.000000
vt 0.000000 0.000000
vt 1.000000 0.000000
vt 1.000000 1.000000
vt 0.000000 0.000000
vn 0.0000 1.0000 0.0000
vn 0.0000 0.9857 0.1686
vn 0.3370 0.9258 0.1712
vn 0.6336 0.7551 0.1686
vn 0.8507 0.4911 0.1873
vn 0.9766 0.1722 0.1285
vn 1.0000 0.0000 0.0000
vn 0.9958 0.0000 0.0917
vn 0.9696 -0.1710 0.1752
vn 0.8488 -0.4901 0.1982
vn 0.6272 -0.7475 0.2190
vn 0.3342 -0.9181 0.2132
vn 0.0000 -1.0000 0.0000
vn 0.3371 0.9262 -0.1686
vn 0.6333 0.7547 -0.1712
vn 0.8536 0.4928 -0.1686
vn 0.9674 0.1706 -0.1873
vn 0.9917 0.0000 -0.1285
vn 0.9807 -0.1729 -0.0917
vn 0.8526 -0.4923 -0.1752
vn 0.6300 -0.7508 -0.1982
vn 0.3337 -0.9169 -0.2190
vn 0.0000 -0.9770 -0.2132
s off
f 2/1/1 3/2/1 1/3/1
f 1/3/2 6/4/2 2/1/2
f 5/5/3 8/6/3 6/4/3
f 7/7/4 10/8/4 8/6/4
f 9/9/5 12/10/5 10/8/5
f 11/11/6 14/12/6 12/10/6
f 13/13/7 16/14/7 14/12/7
f 15/15/8 18/16/8 16/14/8
f 17/17/9 20/18/9 18/16/9
f 19/19/10 22/20/10 20/18/10
f 21/21/11 24/22/11 22/20/11
f 23/23/12 26/24/12 24/22/12
f 25/25/13 28/26/13 26/24/13
f 2/1/1 4/27/1 3/2/1
f 1/3/14 5/5/14 6/4/14
f 5/5/15 7/7/15 8/6/15
f 7/7/16 9/9/16 10/8/16
f 9/9/17 11/11/17 12/10/17
f 11/11/18 13/13/18 14/12/18
f 13/13/7 15/15/7 16/14/7
f 15/15/19 17/17/19 18/16/19
f 17/17/20 19/19/20 20/18/20
f 19/19/21 21/21/21 22/20/21
f 21/21/22 23/23/22 24/22/22
f 23/23/23 25/25/23 26/24/23
f 25/25/13 27/28/13 28/26/13
