# Blender v3.2.2 OBJ File: ''
# www.blender.org
o Cube
v 2.875541 0.172706 -12.344787
v 2.875541 -0.172706 -12.344787
v 2.875541 0.172706 -10.344787
v 2.875541 -0.172706 -10.344787
v -2.875541 0.172706 -12.344787
v -2.875541 -0.172706 -12.344787
v -2.875541 0.172706 -10.344787
v -2.875541 -0.172706 -10.344787
v 2.761194 -0.821202 -8.389330
v 2.643056 -1.145784 -8.389330
v -2.643056 1.145784 -8.389330
v -2.761194 0.821202 -8.389330
v 2.313806 -1.716061 -6.455471
v 2.091779 -1.980663 -6.455471
v -2.091779 1.980663 -6.455471
v -2.313806 1.716061 -6.455471
v 1.587339 -2.403938 -4.616741
v 1.288203 -2.576645 -4.616741
v -1.288203 2.576645 -4.616741
v -1.587339 2.403938 -4.616741
v 0.669415 -2.801865 -2.805958
v 0.329251 -2.861845 -2.805958
v -0.329250 2.861845 -2.805958
v -0.669415 2.801865 -2.805958
v 0.172707 -2.875541 -1.217044
v -0.172706 -2.875541 -1.217044
v 0.172706 2.875541 -1.217044
v -0.172706 2.875541 -1.217044
v 0.172707 -2.875541 1.279850
v -0.172706 -2.875541 1.279850
v 0.172706 2.875541 1.279850
v -0.172706 2.875541 1.279850
v -0.329250 -2.861845 2.820448
v -0.669414 -2.801866 2.820448
v 0.669415 2.801865 2.820448
v 0.329250 2.861845 2.820448
v -1.288202 -2.576644 4.252346
v -1.587338 -2.403939 4.252346
v 1.587338 2.403939 4.252346
v 1.288202 2.576644 4.252346
v -2.091778 -1.980663 5.667096
v -2.313806 -1.716063 5.667096
v 2.313806 1.716062 5.667096
v 2.091778 1.980662 5.667096
v -2.643055 -1.145784 7.023227
v -2.761194 -0.821203 7.023227
v 2.761194 0.821203 7.023227
v 2.643055 1.145784 7.023227
v -2.875540 -0.172707 8.570889
v -2.875541 0.172705 8.570889
v 2.875541 -0.172706 8.570889
v 2.875541 0.172706 8.570889
v -2.875540 -0.172707 10.088658
v -2.875541 0.172705 10.088658
v 2.875541 -0.172706 10.088658
v 2.875541 0.172706 10.088658
vt 0.875000 0.500000
vt 0.625000 0.750000
vt 0.625000 0.500000
vt 0.625000 0.000000
vt 0.375000 0.000000
vt 0.625000 0.000000
vt 0.375000 0.250000
vt 0.375000 0.000000
vt 0.375000 0.500000
vt 0.125000 0.750000
vt 0.125000 0.500000
vt 0.375000 0.750000
vt 0.625000 0.250000
vt 0.625000 0.750000
vt 0.875000 0.750000
vt 0.625000 0.750000
vt 0.375000 0.750000
vt 0.125000 0.750000
vt 0.875000 0.750000
vt 0.625000 0.000000
vt 0.375000 0.000000
vt 0.625000 0.000000
vt 0.375000 0.000000
vt 0.375000 0.750000
vt 0.125000 0.750000
vt 0.125000 0.750000
vt 0.375000 0.750000
vt 0.125000 0.750000
vt 0.375000 0.750000
vt 0.625000 0.750000
vt 0.875000 0.750000
vt 0.625000 0.750000
vt 0.875000 0.750000
vt 0.625000 0.750000
vt 0.875000 0.750000
vt 0.375000 0.000000
vt 0.625000 0.000000
vt 0.375000 0.750000
vt 0.125000 0.750000
vt 0.125000 0.750000
vt 0.375000 0.000000
vt 0.625000 0.000000
vt 0.375000 0.750000
vt 0.625000 0.750000
vt 0.375000 0.750000
vt 0.625000 0.750000
vt 0.625000 0.000000
vt 0.875000 0.750000
vt 0.625000 0.750000
vt 0.875000 0.750000
vt 0.375000 0.000000
vt 0.625000 0.000000
vt 0.125000 0.750000
vt 0.125000 0.750000
vt 0.375000 0.750000
vt 0.125000 0.750000
vt 0.375000 0.000000
vt 0.625000 0.000000
vt 0.375000 0.750000
vt 0.625000 0.750000
vt 0.875000 0.750000
vt 0.625000 0.750000
vt 0.875000 0.750000
vt 0.375000 0.000000
vt 0.625000 0.000000
vt 0.875000 0.750000
vt 0.625000 0.750000
vt 0.375000 0.000000
vt 0.625000 0.000000
vt 0.375000 0.750000
vt 0.125000 0.750000
vt 0.375000 0.750000
vt 0.125000 0.750000
vt 0.125000 0.750000
vt 0.375000 0.000000
vt 0.625000 0.000000
vt 0.625000 0.750000
vt 0.375000 1.000000
vt 0.375000 0.750000
vt 0.625000 0.000000
vt 0.875000 0.750000
vt 0.875000 0.750000
vt 0.375000 0.000000
vt 0.625000 1.000000
vt 0.875000 0.750000
vt 0.375000 0.000000
vn 0.0000 1.0000 0.0000
vn -0.9381 0.3414 -0.0584
vn -1.0000 0.0000 0.0000
vn 0.0000 -1.0000 0.0000
vn 1.0000 0.0000 0.0000
vn 0.0000 0.0000 -1.0000
vn 0.5742 0.6843 0.4495
vn -0.3062 -0.8413 0.4455
vn 0.3062 0.8413 0.4455
vn 0.9381 -0.3414 -0.0584
vn -0.4990 0.8644 -0.0621
vn -0.7647 0.6417 -0.0590
vn -0.5742 -0.6843 0.4495
vn 0.7647 -0.6417 -0.0590
vn -0.8675 -0.1530 0.4734
vn -0.7654 -0.4419 0.4677
vn 0.4990 -0.8644 -0.0621
vn 0.7654 0.4419 0.4677
vn 0.9545 0.0000 0.2984
vn 0.1733 -0.9828 -0.0630
vn 0.8675 0.1530 0.4734
vn -0.1733 0.9828 -0.0630
vn -0.0000 1.0000 -0.0086
vn -0.9545 -0.0000 0.2984
vn 0.0000 -1.0000 -0.0086
vn -0.1736 -0.9848 -0.0089
vn 0.7163 -0.4135 0.5621
vn 0.9373 -0.1653 0.3069
vn 0.1736 0.9848 -0.0089
vn -0.9373 0.1653 0.3069
vn -0.5296 0.6312 0.5667
vn 0.4984 0.8633 -0.0796
vn -0.7163 0.4135 0.5621
vn -0.4984 -0.8633 -0.0796
vn 0.2779 -0.7635 0.5830
vn -0.7636 -0.6407 -0.0806
vn 0.5296 -0.6312 0.5667
vn 0.7636 0.6407 -0.0806
vn 0.0000 -0.8466 0.5323
vn 0.9364 0.3408 -0.0840
vn -0.2779 0.7635 0.5830
vn -0.9364 -0.3408 -0.0840
vn 0.9973 0.0000 -0.0737
vn -0.0000 0.8466 0.5323
vn -0.9973 -0.0000 -0.0737
vn -0.0000 0.0000 1.0000
vn -0.9983 0.0000 0.0584
vn 0.3055 0.8394 -0.4495
vn 0.0000 -0.8953 -0.4455
vn 0.0000 0.8953 -0.4455
vn 0.9983 0.0000 0.0584
vn -0.7646 0.6415 0.0621
vn -0.9381 0.3414 0.0590
vn -0.3055 -0.8394 -0.4495
vn 0.9381 -0.3414 0.0590
vn -0.7629 -0.4404 -0.4734
vn -0.5681 -0.6771 -0.4677
vn 0.7646 -0.6415 0.0621
vn 0.5681 0.6771 -0.4677
vn 0.9400 0.1657 -0.2984
vn 0.4990 -0.8643 0.0630
vn 0.7629 0.4404 -0.4734
vn -0.4990 0.8643 0.0630
vn -0.1736 0.9848 0.0086
vn -0.9400 -0.1657 -0.2984
vn 0.1736 -0.9848 0.0086
vn 0.0000 -1.0000 0.0089
vn 0.8145 -0.1436 -0.5621
vn 0.9518 0.0000 -0.3069
vn -0.0000 1.0000 0.0089
vn -0.9518 -0.0000 -0.3069
vn -0.7135 0.4120 -0.5667
vn 0.1731 0.9817 0.0796
vn -0.8145 0.1436 -0.5621
vn -0.1731 -0.9817 0.0796
vn 0.5223 -0.6224 -0.5830
vn -0.4984 -0.8632 0.0806
vn 0.7135 -0.4120 -0.5667
vn 0.4984 0.8632 0.0806
vn 0.2895 -0.7955 -0.5323
vn 0.7633 0.6405 0.0840
vn -0.5223 0.6224 -0.5830
vn -0.7633 -0.6405 0.0840
vn 0.9371 0.3411 0.0737
vn -0.2895 0.7955 -0.5323
vn -0.9371 -0.3411 0.0737
s off
f 5/1/1 3/2/1 1/3/1
f 7/4/2 12/5/2 11/6/2
f 7/4/3 6/7/3 8/8/3
f 2/9/4 8/10/4 6/11/4
f 1/3/5 4/12/5 2/9/5
f 5/13/6 2/9/6 6/7/6
f 9/14/7 15/15/7 13/16/7
f 8/10/8 10/17/8 12/18/8
f 3/2/9 11/19/9 9/14/9
f 4/12/10 9/14/10 10/17/10
f 15/20/11 20/21/11 19/22/11
f 11/6/12 16/23/12 15/20/12
f 12/18/13 14/24/13 16/25/13
f 10/17/14 13/16/14 14/24/14
f 20/26/15 22/27/15 24/28/15
f 16/25/16 18/29/16 20/26/16
f 14/24/17 17/30/17 18/29/17
f 13/16/18 19/31/18 17/30/18
f 21/32/19 27/33/19 25/34/19
f 18/29/20 21/32/20 22/27/20
f 17/30/21 23/35/21 21/32/21
f 19/22/22 24/36/22 23/37/22
f 26/38/3 32/39/3 28/40/3
f 23/37/23 28/41/23 27/42/23
f 24/28/24 26/38/24 28/40/24
f 22/27/25 25/34/25 26/38/25
f 30/43/26 33/44/26 34/45/26
f 25/34/4 30/43/4 26/38/4
f 27/33/5 29/46/5 25/34/5
f 28/41/1 31/47/1 27/42/1
f 33/44/27 39/48/27 37/49/27
f 29/46/28 35/50/28 33/44/28
f 31/47/29 36/51/29 35/52/29
f 32/39/30 34/45/30 36/53/30
f 40/54/31 42/55/31 44/56/31
f 35/52/32 40/57/32 39/58/32
f 36/53/33 38/59/33 40/54/33
f 34/45/34 37/49/34 38/59/34
f 41/60/35 47/61/35 45/62/35
f 38/59/36 41/60/36 42/55/36
f 37/49/37 43/63/37 41/60/37
f 39/58/38 44/64/38 43/65/38
f 45/62/39 51/66/39 49/67/39
f 43/65/40 48/68/40 47/69/40
f 44/56/41 46/70/41 48/71/41
f 42/55/42 45/62/42 46/70/42
f 50/72/1 56/73/1 52/74/1
f 47/69/43 52/75/43 51/76/43
f 48/71/44 50/72/44 52/74/44
f 46/70/45 49/67/45 50/72/45
f 53/77/46 56/78/46 54/79/46
f 49/67/3 54/79/3 50/72/3
f 51/66/4 53/77/4 49/67/4
f 52/75/5 55/80/5 51/76/5
f 5/1/1 7/81/1 3/2/1
f 7/4/47 8/8/47 12/5/47
f 7/4/3 5/13/3 6/7/3
f 2/9/4 4/12/4 8/10/4
f 1/3/5 3/2/5 4/12/5
f 5/13/6 1/3/6 2/9/6
f 9/14/48 11/19/48 15/15/48
f 8/10/49 4/12/49 10/17/49
f 3/2/50 7/81/50 11/19/50
f 4/12/51 3/2/51 9/14/51
f 15/20/52 16/23/52 20/21/52
f 11/6/53 12/5/53 16/23/53
f 12/18/54 10/17/54 14/24/54
f 10/17/55 9/14/55 13/16/55
f 20/26/56 18/29/56 22/27/56
f 16/25/57 14/24/57 18/29/57
f 14/24/58 13/16/58 17/30/58
f 13/16/59 15/15/59 19/31/59
f 21/32/60 23/35/60 27/33/60
f 18/29/61 17/30/61 21/32/61
f 17/30/62 19/31/62 23/35/62
f 19/22/63 20/21/63 24/36/63
f 26/38/3 30/43/3 32/39/3
f 23/37/64 24/36/64 28/41/64
f 24/28/65 22/27/65 26/38/65
f 22/27/66 21/32/66 25/34/66
f 30/43/67 29/46/67 33/44/67
f 25/34/4 29/46/4 30/43/4
f 27/33/5 31/82/5 29/46/5
f 28/41/1 32/83/1 31/47/1
f 33/44/68 35/50/68 39/48/68
f 29/46/69 31/82/69 35/50/69
f 31/47/70 32/83/70 36/51/70
f 32/39/71 30/43/71 34/45/71
f 40/54/72 38/59/72 42/55/72
f 35/52/73 36/51/73 40/57/73
f 36/53/74 34/45/74 38/59/74
f 34/45/75 33/44/75 37/49/75
f 41/60/76 43/63/76 47/61/76
f 38/59/77 37/49/77 41/60/77
f 37/49/78 39/48/78 43/63/78
f 39/58/79 40/57/79 44/64/79
f 45/62/80 47/61/80 51/66/80
f 43/65/81 44/64/81 48/68/81
f 44/56/82 42/55/82 46/70/82
f 42/55/83 41/60/83 45/62/83
f 50/72/1 54/79/1 56/73/1
f 47/69/84 48/68/84 52/75/84
f 48/71/85 46/70/85 50/72/85
f 46/70/86 45/62/86 49/67/86
f 53/77/46 55/84/46 56/78/46
f 49/67/3 53/77/3 54/79/3
f 51/66/4 55/85/4 53/77/4
f 52/75/5 56/86/5 55/80/5
